<?xml version="1.0" encoding="UTF-8"?>
<!DOCTYPE svg PUBLIC "-//W3C//DTD SVG 1.1//EN" "http://www.w3.org/Graphics/SVG/1.1/DTD/svg11.dtd">
<svg xmlns="http://www.w3.org/2000/svg" version="1.1" width="240px" height="240px" style="shape-rendering:geometricPrecision; text-rendering:geometricPrecision; image-rendering:optimizeQuality; fill-rule:evenodd; clip-rule:evenodd" xmlns:xlink="http://www.w3.org/1999/xlink">
<g><path style="opacity:1" fill="#fefefe" d="M -0.5,-0.5 C 79.5,-0.5 159.5,-0.5 239.5,-0.5C 239.5,79.5 239.5,159.5 239.5,239.5C 159.5,239.5 79.5,239.5 -0.5,239.5C -0.5,159.5 -0.5,79.5 -0.5,-0.5 Z"/></g>
<g><path style="opacity:1" fill="#fca02e" d="M 95.5,55.5 C 104.469,59.9843 113.136,64.9843 121.5,70.5C 119.517,71.152 117.683,72.152 116,73.5C 114.715,73.0496 113.548,72.3829 112.5,71.5C 111.5,72 110.5,72.5 109.5,73C 105.48,77.0214 101.813,81.3548 98.5,86C 97.552,86.4828 96.552,86.6495 95.5,86.5C 95.5,87.5 95.5,88.5 95.5,89.5C 94.1667,89.5 92.8333,89.5 91.5,89.5C 91.3505,90.552 91.5172,91.552 92,92.5C 93.7286,92.9743 94.8953,93.9743 95.5,95.5C 95.1667,95.5 94.8333,95.5 94.5,95.5C 85.4574,90.6518 76.7907,85.3185 68.5,79.5C 68.281,78.325 68.6143,77.325 69.5,76.5C 71.7294,77.5771 74.0628,78.2437 76.5,78.5C 76.4518,75.3648 74.7852,73.6981 71.5,73.5C 70.1463,71.5378 70.8129,70.5378 73.5,70.5C 78.3582,72.5839 82.5249,71.2506 86,66.5C 86.4828,65.552 86.6495,64.552 86.5,63.5C 89.8426,62.7761 93.176,61.9428 96.5,61C 94.9685,58.1872 92.9685,58.0206 90.5,60.5C 88.9539,59.316 87.2873,58.316 85.5,57.5C 87.2844,56.394 89.1178,56.394 91,57.5C 92.3002,56.2927 93.8002,55.6261 95.5,55.5 Z"/></g>
<g><path style="opacity:1" fill="#fbac2f" d="M 95.5,55.5 C 93.8002,55.6261 92.3002,56.2927 91,57.5C 89.1178,56.394 87.2844,56.394 85.5,57.5C 87.2873,58.316 88.9539,59.316 90.5,60.5C 92.9685,58.0206 94.9685,58.1872 96.5,61C 93.176,61.9428 89.8426,62.7761 86.5,63.5C 86.6495,64.552 86.4828,65.552 86,66.5C 82.5249,71.2506 78.3582,72.5839 73.5,70.5C 70.8129,70.5378 70.1463,71.5378 71.5,73.5C 74.7852,73.6981 76.4518,75.3648 76.5,78.5C 74.0628,78.2437 71.7294,77.5771 69.5,76.5C 68.6143,77.325 68.281,78.325 68.5,79.5C 66.4471,79.5979 64.7804,78.9313 63.5,77.5C 60.8531,69.5783 61.0197,61.5783 64,53.5C 68.9683,47.8849 75.135,46.0516 82.5,48C 87.0342,50.586 91.3675,53.086 95.5,55.5 Z"/></g>
<g><path style="opacity:1" fill="#fd982e" d="M 121.5,70.5 C 127.016,72.4216 132.016,75.0883 136.5,78.5C 133.51,79.9384 130.677,79.605 128,77.5C 126.674,77.7549 125.674,78.4216 125,79.5C 122.977,77.9873 123.144,76.6539 125.5,75.5C 122.055,75.0326 119.055,76.1993 116.5,79C 117.448,79.4828 118.448,79.6495 119.5,79.5C 119.762,80.9778 119.429,82.3112 118.5,83.5C 117.167,84.1667 116.167,85.1667 115.5,86.5C 114.311,87.4287 112.978,87.762 111.5,87.5C 111.762,88.9778 111.429,90.3112 110.5,91.5C 108.02,92.4154 107.353,93.9154 108.5,96C 106.598,96.1992 105.098,97.0325 104,98.5C 101.821,97.1602 101.321,97.4935 102.5,99.5C 100.167,98.1667 97.8333,96.8333 95.5,95.5C 94.8953,93.9743 93.7286,92.9743 92,92.5C 91.5172,91.552 91.3505,90.552 91.5,89.5C 92.8333,89.5 94.1667,89.5 95.5,89.5C 95.5,88.5 95.5,87.5 95.5,86.5C 96.552,86.6495 97.552,86.4828 98.5,86C 101.813,81.3548 105.48,77.0214 109.5,73C 110.5,72.5 111.5,72 112.5,71.5C 113.548,72.3829 114.715,73.0496 116,73.5C 117.683,72.152 119.517,71.152 121.5,70.5 Z"/></g>
<g><path style="opacity:1" fill="#fc9031" d="M 136.5,78.5 C 139.704,79.3833 142.371,81.0499 144.5,83.5C 143.237,86.338 141.57,89.0046 139.5,91.5C 137.343,92.7904 135.01,93.6237 132.5,94C 131.526,97.6402 129.193,99.9736 125.5,101C 126.308,101.308 126.975,101.808 127.5,102.5C 126.359,103.425 126.359,104.259 127.5,105C 125.874,104.805 124.207,104.805 122.5,105C 122.957,105.414 123.291,105.914 123.5,106.5C 122.271,107.281 120.938,107.781 119.5,108C 120.108,108.87 120.941,109.37 122,109.5C 123.465,108.67 124.965,108.504 126.5,109C 126.912,110.564 127.245,112.064 127.5,113.5C 118.741,109.62 110.408,104.953 102.5,99.5C 101.321,97.4935 101.821,97.1602 104,98.5C 105.098,97.0325 106.598,96.1992 108.5,96C 107.353,93.9154 108.02,92.4154 110.5,91.5C 111.429,90.3112 111.762,88.9778 111.5,87.5C 112.978,87.762 114.311,87.4287 115.5,86.5C 116.167,85.1667 117.167,84.1667 118.5,83.5C 119.429,82.3112 119.762,80.9778 119.5,79.5C 118.448,79.6495 117.448,79.4828 116.5,79C 119.055,76.1993 122.055,75.0326 125.5,75.5C 123.144,76.6539 122.977,77.9873 125,79.5C 125.674,78.4216 126.674,77.7549 128,77.5C 130.677,79.605 133.51,79.9384 136.5,78.5 Z"/></g>
<g><path style="opacity:1" fill="#fc8430" d="M 144.5,83.5 C 152.785,87.8078 160.785,92.4745 168.5,97.5C 163.82,100.842 158.82,103.675 153.5,106C 151.382,107.049 149.716,108.549 148.5,110.5C 148.167,110.5 147.833,110.5 147.5,110.5C 144.156,111.167 141.489,112.834 139.5,115.5C 137.938,115.733 136.605,116.4 135.5,117.5C 132.148,117.47 129.482,116.137 127.5,113.5C 127.245,112.064 126.912,110.564 126.5,109C 124.965,108.504 123.465,108.67 122,109.5C 120.941,109.37 120.108,108.87 119.5,108C 120.938,107.781 122.271,107.281 123.5,106.5C 123.291,105.914 122.957,105.414 122.5,105C 124.207,104.805 125.874,104.805 127.5,105C 126.359,104.259 126.359,103.425 127.5,102.5C 126.975,101.808 126.308,101.308 125.5,101C 129.193,99.9736 131.526,97.6402 132.5,94C 135.01,93.6237 137.343,92.7904 139.5,91.5C 141.57,89.0046 143.237,86.338 144.5,83.5 Z"/></g>
<g><path style="opacity:1" fill="#d6feff" d="M 61.5,77.5 C 61.5,83.5 61.5,89.5 61.5,95.5C 61.5,111.5 61.5,127.5 61.5,143.5C 61.5,155.167 61.5,166.833 61.5,178.5C 61.8782,180.921 62.5448,183.254 63.5,185.5C 62.2101,184.942 61.3768,183.942 61,182.5C 60.1691,147.331 60.3357,112.331 61.5,77.5 Z"/></g>
<g><path style="opacity:1" fill="#2598f6" d="M 61.5,77.5 C 62.1667,77.5 62.8333,77.5 63.5,77.5C 64.7804,78.9313 66.4471,79.5979 68.5,79.5C 76.7907,85.3185 85.4574,90.6518 94.5,95.5C 94.5,97.5 94.5,99.5 94.5,101.5C 93.6981,102.952 93.1981,104.618 93,106.5C 91.2494,104.51 90.2494,102.177 90,99.5C 88.139,101.348 85.9723,101.348 83.5,99.5C 82.9347,97.4904 81.9347,95.8237 80.5,94.5C 76.0685,94.305 71.5685,94.6383 67,95.5C 64.9403,94.4099 63.607,92.7433 63,90.5C 62.5065,92.1341 62.3398,93.8008 62.5,95.5C 62.1667,95.5 61.8333,95.5 61.5,95.5C 61.5,89.5 61.5,83.5 61.5,77.5 Z"/></g>
<g><path style="opacity:1" fill="#24affc" d="M 94.5,101.5 C 94.6665,113.171 94.4999,124.838 94,136.5C 93.6086,130.137 92.942,123.803 92,117.5C 91.6667,117.833 91.3333,118.167 91,118.5C 90.8973,115.681 90.3973,113.681 89.5,112.5C 88.7321,111.737 88.2321,110.737 88,109.5C 87.6121,110.428 86.9454,111.095 86,111.5C 83.7334,110.729 81.9,109.396 80.5,107.5C 78.974,108.906 77.3073,110.072 75.5,111C 71.5138,111.499 67.5138,111.666 63.5,111.5C 63.1667,106.167 62.8333,100.833 62.5,95.5C 62.3398,93.8008 62.5065,92.1341 63,90.5C 63.607,92.7433 64.9403,94.4099 67,95.5C 71.5685,94.6383 76.0685,94.305 80.5,94.5C 81.9347,95.8237 82.9347,97.4904 83.5,99.5C 85.9723,101.348 88.139,101.348 90,99.5C 90.2494,102.177 91.2494,104.51 93,106.5C 93.1981,104.618 93.6981,102.952 94.5,101.5 Z"/></g>
<g><path style="opacity:1" fill="#fcfcfa" d="M 95.5,95.5 C 97.8333,96.8333 100.167,98.1667 102.5,99.5C 110.408,104.953 118.741,109.62 127.5,113.5C 129.482,116.137 132.148,117.47 135.5,117.5C 130.494,120.001 125.827,123.001 121.5,126.5C 115.835,128.997 110.502,131.997 105.5,135.5C 102.186,137.132 98.853,138.799 95.5,140.5C 95.5,125.5 95.5,110.5 95.5,95.5 Z"/></g>
<g><path style="opacity:1" fill="#8e7ff9" d="M 168.5,97.5 C 177.726,100.519 185.226,105.852 191,113.5C 191.839,118.921 191.506,124.254 190,129.5C 188.127,131.709 185.96,133.542 183.5,135C 178.77,138.364 173.77,141.197 168.5,143.5C 169.588,142 170.921,140.667 172.5,139.5C 173.729,138.719 175.062,138.219 176.5,138C 174.668,137.252 173.001,136.252 171.5,135C 174.572,133.317 176.072,130.817 176,127.5C 172.887,129.83 169.721,129.997 166.5,128C 168.256,127.798 169.922,127.298 171.5,126.5C 170.667,124.833 169.833,123.167 169,121.5C 167.719,121.619 166.552,121.119 165.5,120C 166.167,119.667 166.833,119.333 167.5,119C 165.791,117.084 164.457,114.918 163.5,112.5C 161.608,111.527 159.608,110.86 157.5,110.5C 156.353,110.818 155.519,111.484 155,112.5C 153.933,111.809 152.766,111.309 151.5,111C 153.595,110.444 153.762,109.944 152,109.5C 150.862,109.989 149.695,110.322 148.5,110.5C 149.716,108.549 151.382,107.049 153.5,106C 158.82,103.675 163.82,100.842 168.5,97.5 Z"/></g>
<g><path style="opacity:1" fill="#9a79fc" d="M 168.5,143.5 C 164.167,146.167 159.833,148.833 155.5,151.5C 154.294,148.702 152.294,146.535 149.5,145C 152.166,145.746 154.833,146.913 157.5,148.5C 158.308,148.192 158.975,147.692 159.5,147C 157.774,145.47 155.774,144.47 153.5,144C 153.927,141.872 153.427,139.705 152,137.5C 151.667,138.167 151.333,138.833 151,139.5C 150.535,138.069 149.701,136.903 148.5,136C 149.167,135.667 149.833,135.333 150.5,135C 148.913,133.155 147.579,131.155 146.5,129C 146.905,128.055 147.572,127.388 148.5,127C 147.109,125.98 145.609,125.147 144,124.5C 141.734,121.646 142.234,119.813 145.5,119C 145.167,118.667 144.833,118.333 144.5,118C 146.645,117.257 146.811,116.424 145,115.5C 143.128,116.068 141.295,116.735 139.5,117.5C 138.537,117.03 138.537,116.363 139.5,115.5C 141.865,114.992 144.199,114.325 146.5,113.5C 147.386,112.675 147.719,111.675 147.5,110.5C 147.833,110.5 148.167,110.5 148.5,110.5C 149.695,110.322 150.862,109.989 152,109.5C 153.762,109.944 153.595,110.444 151.5,111C 152.766,111.309 153.933,111.809 155,112.5C 155.519,111.484 156.353,110.818 157.5,110.5C 159.608,110.86 161.608,111.527 163.5,112.5C 164.457,114.918 165.791,117.084 167.5,119C 166.833,119.333 166.167,119.667 165.5,120C 166.552,121.119 167.719,121.619 169,121.5C 169.833,123.167 170.667,124.833 171.5,126.5C 169.922,127.298 168.256,127.798 166.5,128C 169.721,129.997 172.887,129.83 176,127.5C 176.072,130.817 174.572,133.317 171.5,135C 173.001,136.252 174.668,137.252 176.5,138C 175.062,138.219 173.729,138.719 172.5,139.5C 170.921,140.667 169.588,142 168.5,143.5 Z"/></g>
<g><path style="opacity:1" fill="#b97bc9" d="M 147.5,110.5 C 147.719,111.675 147.386,112.675 146.5,113.5C 144.199,114.325 141.865,114.992 139.5,115.5C 141.489,112.834 144.156,111.167 147.5,110.5 Z"/></g>
<g><path style="opacity:1" fill="#24b9fa" d="M 61.5,95.5 C 61.8333,95.5 62.1667,95.5 62.5,95.5C 62.8333,100.833 63.1667,106.167 63.5,111.5C 67.5138,111.666 71.5138,111.499 75.5,111C 77.3073,110.072 78.974,108.906 80.5,107.5C 81.9,109.396 83.7334,110.729 86,111.5C 86.9454,111.095 87.6121,110.428 88,109.5C 88.2321,110.737 88.7321,111.737 89.5,112.5C 89.0557,118.832 88.5557,125.165 88,131.5C 87.8038,133.286 86.9705,134.619 85.5,135.5C 84.5431,132.72 83.3764,130.053 82,127.5C 81.8008,129.402 80.9675,130.902 79.5,132C 74.1771,132.499 68.8437,132.666 63.5,132.5C 63.6633,130.143 63.4966,127.81 63,125.5C 62.5005,131.491 62.3338,137.491 62.5,143.5C 62.1667,143.5 61.8333,143.5 61.5,143.5C 61.5,127.5 61.5,111.5 61.5,95.5 Z"/></g>
<g><path style="opacity:1" fill="#ab75fb" d="M 139.5,115.5 C 138.537,116.363 138.537,117.03 139.5,117.5C 141.295,116.735 143.128,116.068 145,115.5C 146.811,116.424 146.645,117.257 144.5,118C 144.833,118.333 145.167,118.667 145.5,119C 142.234,119.813 141.734,121.646 144,124.5C 145.609,125.147 147.109,125.98 148.5,127C 147.572,127.388 146.905,128.055 146.5,129C 147.579,131.155 148.913,133.155 150.5,135C 149.833,135.333 149.167,135.667 148.5,136C 149.701,136.903 150.535,138.069 151,139.5C 151.333,138.833 151.667,138.167 152,137.5C 153.427,139.705 153.927,141.872 153.5,144C 155.774,144.47 157.774,145.47 159.5,147C 158.975,147.692 158.308,148.192 157.5,148.5C 154.833,146.913 152.166,145.746 149.5,145C 152.294,146.535 154.294,148.702 155.5,151.5C 154.167,152.167 152.833,152.833 151.5,153.5C 151.189,152.522 150.522,151.855 149.5,151.5C 148.549,152.326 147.549,152.492 146.5,152C 147.451,151.282 147.617,150.449 147,149.5C 142.852,147.936 142.686,146.27 146.5,144.5C 140.083,140.435 136.083,134.768 134.5,127.5C 130.132,127.024 125.799,126.69 121.5,126.5C 125.827,123.001 130.494,120.001 135.5,117.5C 136.605,116.4 137.938,115.733 139.5,115.5 Z"/></g>
<g><path style="opacity:1" fill="#30c4fd" d="M 94.5,95.5 C 94.8333,95.5 95.1667,95.5 95.5,95.5C 95.5,110.5 95.5,125.5 95.5,140.5C 95.5,140.833 95.5,141.167 95.5,141.5C 95.5,155.5 95.5,169.5 95.5,183.5C 94.6981,182.048 94.1981,180.382 94,178.5C 93.5005,172.175 93.3338,165.842 93.5,159.5C 93.1606,148.782 92.1606,138.115 90.5,127.5C 89.1065,134.183 87.6065,140.849 86,147.5C 84.5517,143.545 83.2183,139.545 82,135.5C 81.5026,138.146 81.3359,140.813 81.5,143.5C 75.1667,143.5 68.8333,143.5 62.5,143.5C 62.3338,137.491 62.5005,131.491 63,125.5C 63.4966,127.81 63.6633,130.143 63.5,132.5C 68.8437,132.666 74.1771,132.499 79.5,132C 80.9675,130.902 81.8008,129.402 82,127.5C 83.3764,130.053 84.5431,132.72 85.5,135.5C 86.9705,134.619 87.8038,133.286 88,131.5C 88.5557,125.165 89.0557,118.832 89.5,112.5C 90.3973,113.681 90.8973,115.681 91,118.5C 91.3333,118.167 91.6667,117.833 92,117.5C 92.942,123.803 93.6086,130.137 94,136.5C 94.4999,124.838 94.6665,113.171 94.5,101.5C 94.5,99.5 94.5,97.5 94.5,95.5 Z"/></g>
<g><path style="opacity:1" fill="#ba3af7" d="M 104.5,180.5 C 101.701,182.403 98.7009,184.069 95.5,185.5C 95.5,184.833 95.5,184.167 95.5,183.5C 95.5,169.5 95.5,155.5 95.5,141.5C 97.8437,139.932 99.8437,140.265 101.5,142.5C 102.177,153.728 102.843,164.895 103.5,176C 102.692,176.308 102.025,176.808 101.5,177.5C 102.34,178.735 103.34,179.735 104.5,180.5 Z"/></g>
<g><path style="opacity:1" fill="#c54ff7" d="M 105.5,135.5 C 108.97,135.71 108.97,136.877 105.5,139C 107.689,139.322 109.689,138.822 111.5,137.5C 110.043,139.785 108.043,141.618 105.5,143C 106.807,148.254 107.474,153.754 107.5,159.5C 107.076,166.284 107.076,172.951 107.5,179.5C 106.391,179.557 105.391,179.89 104.5,180.5C 103.34,179.735 102.34,178.735 101.5,177.5C 102.025,176.808 102.692,176.308 103.5,176C 102.843,164.895 102.177,153.728 101.5,142.5C 99.8437,140.265 97.8437,139.932 95.5,141.5C 95.5,141.167 95.5,140.833 95.5,140.5C 98.853,138.799 102.186,137.132 105.5,135.5 Z"/></g>
<g><path style="opacity:1" fill="#c66af9" d="M 111.5,137.5 C 114.516,137.841 117.182,139.007 119.5,141C 122.146,141.497 124.813,141.664 127.5,141.5C 127.187,144.247 127.52,146.914 128.5,149.5C 132.91,151.652 134.577,154.985 133.5,159.5C 134.949,160.172 136.282,160.839 137.5,161.5C 127.563,167.474 117.563,173.474 107.5,179.5C 107.076,172.951 107.076,166.284 107.5,159.5C 107.474,153.754 106.807,148.254 105.5,143C 108.043,141.618 110.043,139.785 111.5,137.5 Z"/></g>
<g><path style="opacity:1" fill="#b770f9" d="M 121.5,126.5 C 125.799,126.69 130.132,127.024 134.5,127.5C 136.083,134.768 140.083,140.435 146.5,144.5C 142.686,146.27 142.852,147.936 147,149.5C 147.617,150.449 147.451,151.282 146.5,152C 147.549,152.492 148.549,152.326 149.5,151.5C 150.522,151.855 151.189,152.522 151.5,153.5C 146.81,156.204 142.144,158.87 137.5,161.5C 136.282,160.839 134.949,160.172 133.5,159.5C 134.577,154.985 132.91,151.652 128.5,149.5C 127.52,146.914 127.187,144.247 127.5,141.5C 124.813,141.664 122.146,141.497 119.5,141C 117.182,139.007 114.516,137.841 111.5,137.5C 109.689,138.822 107.689,139.322 105.5,139C 108.97,136.877 108.97,135.71 105.5,135.5C 110.502,131.997 115.835,128.997 121.5,126.5 Z"/></g>
<g><path style="opacity:1" fill="#24cffc" d="M 93.5,159.5 C 92.0433,166.285 91.0433,173.285 90.5,180.5C 89.9288,173.419 89.0955,166.419 88,159.5C 87.5005,165.491 87.3338,171.491 87.5,177.5C 86.0695,177.579 84.7362,177.246 83.5,176.5C 81.0078,179.131 78.6745,178.965 76.5,176C 73.9969,175.126 71.9969,175.793 70.5,178C 71.0253,178.692 71.6919,179.192 72.5,179.5C 74.5435,176.8 76.2101,176.967 77.5,180C 75.3303,181.43 75.1636,182.93 77,184.5C 78.0646,182.604 78.8979,182.437 79.5,184C 78.2109,187.104 76.2109,189.604 73.5,191.5C 73.0894,190.738 72.9227,189.738 73,188.5C 71.8173,189.731 70.6507,189.731 69.5,188.5C 71.1222,186.561 72.9555,186.228 75,187.5C 75.4922,186.451 75.3256,185.451 74.5,184.5C 72.4962,182.995 70.6629,181.328 69,179.5C 68.5,179.667 68,179.833 67.5,180C 68.8692,182.239 68.3692,184.073 66,185.5C 65.3162,184.216 65.4829,183.049 66.5,182C 65.5509,181.383 64.7175,181.549 64,182.5C 64,181.167 64,179.833 64,178.5C 63.2303,179.598 62.397,179.598 61.5,178.5C 61.5,166.833 61.5,155.167 61.5,143.5C 61.8333,143.5 62.1667,143.5 62.5,143.5C 68.8333,143.5 75.1667,143.5 81.5,143.5C 81.3359,140.813 81.5026,138.146 82,135.5C 83.2183,139.545 84.5517,143.545 86,147.5C 87.6065,140.849 89.1065,134.183 90.5,127.5C 92.1606,138.115 93.1606,148.782 93.5,159.5 Z"/></g>
<g><path style="opacity:1" fill="#26dcf9" d="M 93.5,159.5 C 93.3338,165.842 93.5005,172.175 94,178.5C 94.1981,180.382 94.6981,182.048 95.5,183.5C 95.5,184.167 95.5,184.833 95.5,185.5C 92.1762,188.122 88.5095,190.289 84.5,192C 75.905,194.745 68.905,192.578 63.5,185.5C 62.5448,183.254 61.8782,180.921 61.5,178.5C 62.397,179.598 63.2303,179.598 64,178.5C 64,179.833 64,181.167 64,182.5C 64.7175,181.549 65.5509,181.383 66.5,182C 65.4829,183.049 65.3162,184.216 66,185.5C 68.3692,184.073 68.8692,182.239 67.5,180C 68,179.833 68.5,179.667 69,179.5C 70.6629,181.328 72.4962,182.995 74.5,184.5C 75.3256,185.451 75.4922,186.451 75,187.5C 72.9555,186.228 71.1222,186.561 69.5,188.5C 70.6507,189.731 71.8173,189.731 73,188.5C 72.9227,189.738 73.0894,190.738 73.5,191.5C 76.2109,189.604 78.2109,187.104 79.5,184C 78.8979,182.437 78.0646,182.604 77,184.5C 75.1636,182.93 75.3303,181.43 77.5,180C 76.2101,176.967 74.5435,176.8 72.5,179.5C 71.6919,179.192 71.0253,178.692 70.5,178C 71.9969,175.793 73.9969,175.126 76.5,176C 78.6745,178.965 81.0078,179.131 83.5,176.5C 84.7362,177.246 86.0695,177.579 87.5,177.5C 87.3338,171.491 87.5005,165.491 88,159.5C 89.0955,166.419 89.9288,173.419 90.5,180.5C 91.0433,173.285 92.0433,166.285 93.5,159.5 Z"/></g>
</svg>
